<svg width="151" height="187" viewBox="0 0 151 187" fill="none" xmlns="http://www.w3.org/2000/svg">
<path d="M24.1137 96.2393C23.5175 96.2393 22.9348 96.3999 22.4391 96.7009C21.9434 97.0019 21.5571 97.4297 21.3289 97.9303C21.1008 98.4308 21.0411 98.9815 21.1574 99.5129C21.2737 100.044 21.5608 100.532 21.9823 100.915C22.4039 101.299 22.941 101.559 23.5257 101.665C24.1104 101.771 24.7164 101.717 25.2672 101.509C25.818 101.302 26.2887 100.951 26.6199 100.5C26.9511 100.05 27.1279 99.5203 27.1279 98.9785C27.1279 98.252 26.8103 97.5553 26.2451 97.0416C25.6798 96.5279 24.9131 96.2393 24.1137 96.2393ZM24.1137 145.546C23.5175 145.546 22.9348 145.707 22.4391 146.008C21.9434 146.309 21.5571 146.736 21.3289 147.237C21.1008 147.737 21.0411 148.288 21.1574 148.82C21.2737 149.351 21.5608 149.839 21.9823 150.222C22.4039 150.605 22.941 150.866 23.5257 150.972C24.1104 151.077 24.7164 151.023 25.2672 150.816C25.818 150.609 26.2887 150.257 26.6199 149.807C26.9511 149.357 27.1279 148.827 27.1279 148.285C27.1279 147.559 26.8103 146.862 26.2451 146.348C25.6798 145.834 24.9131 145.546 24.1137 145.546ZM24.1137 112.675C23.5175 112.675 22.9348 112.835 22.4391 113.136C21.9434 113.437 21.5571 113.865 21.3289 114.366C21.1008 114.866 21.0411 115.417 21.1574 115.948C21.2737 116.48 21.5608 116.968 21.9823 117.351C22.4039 117.734 22.941 117.995 23.5257 118.101C24.1104 118.206 24.7164 118.152 25.2672 117.945C25.818 117.737 26.2887 117.386 26.6199 116.936C26.9511 116.485 27.1279 115.956 27.1279 115.414C27.1279 114.688 26.8103 113.991 26.2451 113.477C25.6798 112.963 24.9131 112.675 24.1137 112.675ZM24.1137 161.981C23.5175 161.981 22.9348 162.142 22.4391 162.443C21.9434 162.744 21.5571 163.172 21.3289 163.672C21.1008 164.173 21.0411 164.724 21.1574 165.255C21.2737 165.786 21.5608 166.275 21.9823 166.658C22.4039 167.041 22.941 167.302 23.5257 167.407C24.1104 167.513 24.7164 167.459 25.2672 167.251C25.818 167.044 26.2887 166.693 26.6199 166.243C26.9511 165.792 27.1279 165.262 27.1279 164.721C27.1279 163.994 26.8103 163.297 26.2451 162.784C25.6798 162.27 24.9131 161.981 24.1137 161.981ZM78.1204 73.8723V71.816C78.1172 67.7881 76.57 63.887 73.7447 60.7836C70.9193 57.6801 66.9925 55.5681 62.6394 54.8107L58.9218 54.1679C60.9041 52.7084 62.5026 50.8648 63.6005 48.772C64.6984 46.6792 65.268 44.3899 65.2678 42.0713V33.8901C65.267 32.2722 64.6794 30.6997 63.5959 29.416C64.6786 28.2079 65.2691 26.6972 65.2678 25.1391V18.5904C65.2678 17.8639 64.9502 17.1672 64.3849 16.6535C63.8196 16.1398 63.053 15.8512 62.2535 15.8512H38.4453C34.0244 15.8512 30.9419 19.7519 30.9419 23.2545V33.2948C30.9425 33.3912 30.9492 33.4876 30.962 33.5833C30.962 33.6856 30.9419 33.7878 30.9419 33.8901V42.0713C30.9416 44.3899 31.5112 46.6792 32.6091 48.772C33.7071 50.8648 35.3055 52.7084 37.2878 54.1679L33.5703 54.8107C29.2164 55.5673 25.2886 57.679 22.4625 60.7826C19.6364 63.8861 18.0886 67.7876 18.0853 71.816V73.8723C18.0853 76.6814 19.3132 79.3755 21.4989 81.3618C23.6847 83.3482 26.6491 84.4641 29.7402 84.4641H66.4654C69.5565 84.4641 72.521 83.3482 74.7067 81.3618C76.8924 79.3755 78.1204 76.6814 78.1204 73.8723ZM36.9703 23.2545C36.9703 22.345 37.8505 21.3297 38.4453 21.3297H59.2353V25.1391C59.2342 25.4943 59.0785 25.8347 58.8021 26.0858C58.5258 26.337 58.1512 26.4785 57.7604 26.4795C57.6546 26.4739 57.5486 26.4739 57.4429 26.4795H39.1004C38.3807 26.4811 37.6644 26.5695 36.9703 26.7425V23.2545ZM36.9703 42.0713V33.8901C36.9714 33.3773 37.1963 32.8859 37.5956 32.5237C37.995 32.1614 38.5361 31.958 39.1004 31.958H57.1053C57.6695 31.958 58.2107 32.1614 58.61 32.5237C59.0094 32.8859 59.2342 33.3773 59.2353 33.8901V42.0713C59.2353 44.7545 58.0624 47.3278 55.9747 49.2251C53.8869 51.1224 51.0553 52.1883 48.1028 52.1883C45.1503 52.1883 42.3187 51.1224 40.231 49.2251C38.1432 47.3278 36.9703 44.7545 36.9703 42.0713ZM51.0045 57.4404V58.2074C51.0045 58.5537 50.9294 58.8966 50.7836 59.2165C50.6378 59.5365 50.4241 59.8272 50.1546 60.072C49.8852 60.3169 49.5653 60.5111 49.2132 60.6437C48.8612 60.7762 48.4839 60.8444 48.1028 60.8444C47.7218 60.8444 47.3444 60.7762 46.9924 60.6437C46.6403 60.5111 46.3205 60.3169 46.051 60.072C45.7816 59.8272 45.5678 59.5365 45.422 59.2165C45.2762 58.8966 45.2011 58.5537 45.2011 58.2074V57.4404C47.1213 57.7423 49.0843 57.7423 51.0045 57.4404ZM24.1137 73.876V71.8197C24.1164 69.0664 25.1742 66.4 27.1053 64.2785C29.0364 62.1569 31.7202 60.7128 34.6956 60.1943L39.2692 59.4054C39.5711 61.341 40.6318 63.1126 42.2563 64.3943C43.8807 65.676 45.9596 66.3817 48.1109 66.3817C50.2621 66.3817 52.341 65.676 53.9655 64.3943C55.5899 63.1126 56.6506 61.341 56.9525 59.4054L61.5261 60.1943C64.5015 60.7128 67.1853 62.1569 69.1164 64.2785C71.0475 66.4 72.1053 69.0664 72.108 71.8197V73.876C72.108 75.2321 71.5152 76.5327 70.46 77.4916C69.4049 78.4505 67.9737 78.9892 66.4815 78.9892H29.7402C29.001 78.9892 28.269 78.8569 27.5861 78.5997C26.9032 78.3425 26.2828 77.9655 25.7603 77.4903C25.2377 77.0151 24.8234 76.451 24.5408 75.8302C24.2583 75.2094 24.1132 74.5441 24.1137 73.8723V73.876ZM24.1137 129.114C23.5175 129.114 22.9348 129.275 22.4391 129.576C21.9434 129.877 21.5571 130.304 21.3289 130.805C21.1008 131.306 21.0411 131.856 21.1574 132.388C21.2737 132.919 21.5608 133.407 21.9823 133.79C22.4039 134.173 22.941 134.434 23.5257 134.54C24.1104 134.646 24.7164 134.591 25.2672 134.384C25.818 134.177 26.2887 133.826 26.6199 133.375C26.9511 132.925 27.1279 132.395 27.1279 131.853C27.1284 131.493 27.0509 131.137 26.8996 130.804C26.7484 130.471 26.5264 130.169 26.2465 129.914C25.9665 129.659 25.6341 129.457 25.2681 129.319C24.9022 129.181 24.5099 129.11 24.1137 129.11V129.114ZM129.901 78.9892H89.8477C89.0482 78.9892 88.2816 79.2778 87.7163 79.7916C87.151 80.3053 86.8334 81.002 86.8334 81.7285C86.8334 82.455 87.151 83.1517 87.7163 83.6654C88.2816 84.1792 89.0482 84.4678 89.8477 84.4678H129.901C130.7 84.4678 131.467 84.1792 132.032 83.6654C132.597 83.1517 132.915 82.455 132.915 81.7285C132.915 81.002 132.597 80.3053 132.032 79.7916C131.467 79.2778 130.7 78.9892 129.901 78.9892ZM129.901 68.0322H89.8477C89.0482 68.0322 88.2816 68.3208 87.7163 68.8345C87.151 69.3482 86.8334 70.045 86.8334 70.7715C86.8334 71.498 87.151 72.1947 87.7163 72.7084C88.2816 73.2221 89.0482 73.5107 89.8477 73.5107H129.901C130.7 73.5107 131.467 73.2221 132.032 72.7084C132.597 72.1947 132.915 71.498 132.915 70.7715C132.915 70.045 132.597 69.3482 132.032 68.8345C131.467 68.3208 130.7 68.0322 129.901 68.0322ZM129.901 16.4355H89.8477C89.0482 16.4355 88.2816 16.7241 87.7163 17.2379C87.151 17.7516 86.8334 18.4483 86.8334 19.1748C86.8334 19.9013 87.151 20.598 87.7163 21.1118C88.2816 21.6255 89.0482 21.9141 89.8477 21.9141H129.901C130.7 21.9141 131.467 21.6255 132.032 21.1118C132.597 20.598 132.915 19.9013 132.915 19.1748C132.915 18.4483 132.597 17.7516 132.032 17.2379C131.467 16.7241 130.7 16.4355 129.901 16.4355ZM89.8477 32.8711H111.815C112.615 32.8711 113.381 32.5825 113.947 32.0688C114.512 31.5551 114.829 30.8583 114.829 30.1318C114.829 29.4053 114.512 28.7086 113.947 28.1949C113.381 27.6812 112.615 27.3926 111.815 27.3926H89.8477C89.0482 27.3926 88.2816 27.6812 87.7163 28.1949C87.151 28.7086 86.8334 29.4053 86.8334 30.1318C86.8334 30.8583 87.151 31.5551 87.7163 32.0688C88.2816 32.5825 89.0482 32.8711 89.8477 32.8711ZM135.929 0H15.0711C11.0753 0.0038672 7.24436 1.44811 4.41891 4.01582C1.59346 6.58354 0.00425537 10.065 0 13.6963V173.304C0.00425537 176.935 1.59346 180.416 4.41891 182.984C7.24436 185.552 11.0753 186.996 15.0711 187H135.929C139.925 186.996 143.756 185.552 146.581 182.984C149.407 180.416 150.996 176.935 151 173.304V13.6963C150.996 10.065 149.407 6.58354 146.581 4.01582C143.756 1.44811 139.925 0.0038672 135.929 0ZM144.972 173.304C144.969 175.483 144.016 177.572 142.321 179.112C140.625 180.653 138.327 181.52 135.929 181.521H15.0711C12.6735 181.52 10.3747 180.653 8.6793 179.112C6.98394 177.572 6.03055 175.483 6.02843 173.304V13.6963C6.03055 11.5174 6.98394 9.42829 8.6793 7.88758C10.3747 6.34687 12.6735 5.48045 15.0711 5.47852H135.929C138.327 5.48045 140.625 6.34687 142.321 7.88758C144.016 9.42829 144.969 11.5174 144.972 13.6963V173.304ZM129.901 145.546H40.0207C39.2213 145.546 38.4546 145.834 37.8893 146.348C37.3241 146.862 37.0065 147.559 37.0065 148.285C37.0065 149.012 37.3241 149.708 37.8893 150.222C38.4546 150.736 39.2213 151.024 40.0207 151.024H129.901C130.7 151.024 131.467 150.736 132.032 150.222C132.597 149.708 132.915 149.012 132.915 148.285C132.915 147.559 132.597 146.862 132.032 146.348C131.467 145.834 130.7 145.546 129.901 145.546ZM129.901 161.981H40.0207C39.2213 161.981 38.4546 162.27 37.8893 162.784C37.3241 163.297 37.0065 163.994 37.0065 164.721C37.0065 165.447 37.3241 166.144 37.8893 166.658C38.4546 167.171 39.2213 167.46 40.0207 167.46H129.901C130.7 167.46 131.467 167.171 132.032 166.658C132.597 166.144 132.915 165.447 132.915 164.721C132.915 163.994 132.597 163.297 132.032 162.784C131.467 162.27 130.7 161.981 129.901 161.981ZM129.901 96.2393H40.0207C39.2213 96.2393 38.4546 96.5279 37.8893 97.0416C37.3241 97.5553 37.0065 98.252 37.0065 98.9785C37.0065 99.705 37.3241 100.402 37.8893 100.915C38.4546 101.429 39.2213 101.718 40.0207 101.718H129.901C130.7 101.718 131.467 101.429 132.032 100.915C132.597 100.402 132.915 99.705 132.915 98.9785C132.915 98.252 132.597 97.5553 132.032 97.0416C131.467 96.5279 130.7 96.2393 129.901 96.2393ZM129.901 129.11H40.0207C39.2213 129.11 38.4546 129.399 37.8893 129.913C37.3241 130.426 37.0065 131.123 37.0065 131.85C37.0065 132.576 37.3241 133.273 37.8893 133.787C38.4546 134.3 39.2213 134.589 40.0207 134.589H129.901C130.7 134.589 131.467 134.3 132.032 133.787C132.597 133.273 132.915 132.576 132.915 131.85C132.915 131.123 132.597 130.426 132.032 129.913C131.467 129.399 130.7 129.11 129.901 129.11ZM129.901 112.675H40.0207C39.2213 112.675 38.4546 112.963 37.8893 113.477C37.3241 113.991 37.0065 114.688 37.0065 115.414C37.0065 116.141 37.3241 116.837 37.8893 117.351C38.4546 117.865 39.2213 118.153 40.0207 118.153H129.901C130.7 118.153 131.467 117.865 132.032 117.351C132.597 116.837 132.915 116.141 132.915 115.414C132.915 114.688 132.597 113.991 132.032 113.477C131.467 112.963 130.7 112.675 129.901 112.675Z" fill="black"/>
</svg>
